<svg xmlns="http://www.w3.org/2000/svg" viewBox="0 0 98.1 118">
  <path fill="#FF3E00" d="M91.8 15.6C80.9-.1 59.2-4.7 43.6 5.2L16.1 22.8C8.6 27.5 3.4 35.2 2 44c-1.3 7.9.8 16 5.7 22.3-.8 2.7-1 5.5-.6 8.3.7 7.1 4.4 13.5 10.1 17.7l27.5 17.6c15.6 10 37.3 5.4 48.2-10.3 2.8-4 4.4-8.7 4.8-13.4 7.5-4.7 12.7-12.4 14.1-21.2 1.3-7.9-.8-16-5.7-22.4.8-2.7 1-5.5.6-8.3-.7-7.1-4.4-13.5-10.1-17.7z"/>
  <path fill="#FFF" d="M40.9 103.9c-8.9 2.3-18.2-1.7-22.9-9.7-2.9-4.8-3.9-10.5-2.8-16.1.2-.9.4-1.8.7-2.6l.5-1.6 1.4 1c3.3 2.4 6.9 4.2 10.8 5.4l1 .3-.1 1c-.1 1.4.3 2.9 1.1 4.1 1.6 2.5 4.5 3.8 7.4 3.2.7-.1 1.3-.4 1.9-.7L65.4 72c1.7-1.1 2.9-2.8 3.4-4.8.5-2-.1-4.1-1.5-5.6-1.6-2.5-4.5-3.7-7.4-3.1-.7.1-1.3.4-1.9.7l-10.5 6.7c-1.9 1.2-4 2-6.2 2.4-8.9 2.3-18.2-1.7-22.9-9.7-2.9-4.8-3.9-10.5-2.8-16.1.9-5.1 3.9-9.6 8.3-12.4l27.5-17.5c1.9-1.2 4-2 6.2-2.4 8.9-2.3 18.2 1.7 22.9 9.7 2.9 4.8 3.9 10.5 2.8 16.1-.2.9-.4 1.8-.7 2.6l-.5 1.6-1.4-1c-3.3-2.4-6.9-4.2-10.8-5.4l-1-.3.1-1c.1-1.4-.3-2.9-1.1-4.1-1.6-2.5-4.5-3.8-7.4-3.2-.7.1-1.3.4-1.9.7L32.4 46c-1.7 1.1-2.9 2.8-3.4 4.8-.5 2 .1 4.1 1.5 5.6 1.6 2.5 4.5 3.7 7.4 3.1.7-.1 1.3-.4 1.9-.7l10.5-6.7c1.9-1.2 4-2 6.2-2.4 8.9-2.3 18.2 1.7 22.9 9.7 2.9 4.8 3.9 10.5 2.8 16.1-.9 5.1-3.9 9.6-8.3 12.4L49.7 92c-1.9 1.2-4 2-6.2 2.4l-2.6.5v9z"/>
</svg>
