<svg xmlns="http://www.w3.org/2000/svg" width="600" height="150" viewBox="0 0 600 150">
 
 <g transform="translate(8 25)">
  <defs>
   <linearGradient id="m-pur" x1="14" y1="14" x2="86" y2="86" gradientUnits="userSpaceOnUse"><stop stop-color="#A493FF"></stop><stop offset="1" stop-color="#6A4FD6"></stop></linearGradient>
   <linearGradient id="m-star" x1="50" y1="8" x2="50" y2="92" gradientUnits="userSpaceOnUse"><stop stop-color="#FFFFFF"></stop><stop offset="1" stop-color="#E5E7F3"></stop></linearGradient>
  </defs>
  <path d="M38.98 11.55 A40 40 0 0 0 38.98 88.45" fill="none" stroke="#7E879F" stroke-width="2.4" stroke-linecap="round"></path>
  <path d="M61.02 11.55 A40 40 0 0 1 61.02 88.45" fill="none" stroke="url(#m-pur)" stroke-width="2.4" stroke-linecap="round"></path>
  <path d="M30 50 H44" fill="none" stroke="#6E7796" stroke-width="1.8" stroke-linecap="round" stroke-dasharray="0.1 3.6"></path>
  <path d="M56 50 H70" fill="none" stroke="url(#m-pur)" stroke-width="1.8" stroke-linecap="round" stroke-dasharray="0.1 3.6"></path>
  <circle cx="28.5" cy="50" r="2.7" fill="#6E7796"></circle>
  <circle cx="71.5" cy="50" r="2.7" fill="url(#m-pur)"></circle>
  <path d="M50 8 Q53.5 46.5 82 50 Q53.5 53.5 50 92 Q46.5 53.5 18 50 Q46.5 46.5 50 8 Z" fill="url(#m-star)"></path>
  <path d="M50 41 Q51.3 48.7 58 50 Q51.3 51.3 50 59 Q48.7 51.3 42 50 Q48.7 48.7 50 41 Z" fill="#8A6BF2"></path>
 </g>
 <text x="150" y="82" fill="#F4F5FB" font-family="Saira, &#39;Segoe UI&#39;, &#39;Helvetica Neue&#39;, Arial, sans-serif" font-weight="600" font-size="62" letter-spacing="18.6">VESPER</text>
 <text x="152" y="112" fill="#8B92A8" font-family="Saira, &#39;Segoe UI&#39;, &#39;Helvetica Neue&#39;, Arial, sans-serif" font-weight="400" font-size="12.5" letter-spacing="2.7">LIGHTWEIGHT. <tspan fill="#9D8BFF">PYTHON-FIRST.</tspan> DESKTOP FRAMEWORK.</text>
</svg>