<svg xmlns="http://www.w3.org/2000/svg" viewBox="0 0 410 404">
  <defs>
    <linearGradient id="vite-a" x1="109.586" y1="217.013" x2="309.27" y2="344.409" gradientUnits="userSpaceOnUse">
      <stop offset="0" stop-color="#41D1FF"/>
      <stop offset="1" stop-color="#BD34FE"/>
    </linearGradient>
    <linearGradient id="vite-b" x1="193.152" y1="-8.992" x2="273.785" y2="364.733" gradientUnits="userSpaceOnUse">
      <stop offset="0" stop-color="#FF3CAC"/>
      <stop offset=".499" stop-color="#784BA0"/>
      <stop offset="1" stop-color="#2B86C5"/>
    </linearGradient>
  </defs>
  <path d="M399.641 59.525l-183.998 329.02c-3.476 6.219-12.366 6.219-15.842 0L15.803 59.525c-3.744-6.699 1.785-14.83 9.431-13.801l192.001 26.269a9.96 9.96 0 0 0 2.68 0l192.001-26.269c7.646-1.029 13.175 7.102 9.725 13.801z" fill="url(#vite-a)"/>
  <path d="M292.965.43L167.862 22.694a6.966 6.966 0 0 0-5.649 7.782l13.901 127.001a6.966 6.966 0 0 0 7.888 6.038l36.498-3.877c4.743-.504 8.486 3.844 7.394 8.485l-11.521 47.671c-1.152 4.766 2.947 9.18 7.777 8.307l22.522-4.197c4.83-.873 8.929 3.541 7.777 8.307l-18.341 70.575c-1.15 4.422 4.577 6.833 6.956 2.992l1.525-2.382 84.074-168.508c2.509-5.027-1.822-10.699-7.382-9.736l-37.608 6.466c-4.885.84-8.941-3.756-7.553-8.504l24.928-87.666c1.388-4.748-2.668-9.344-7.553-8.504z" fill="url(#vite-b)"/>
</svg>
